<svg width="27" height="25" viewBox="0 0 27 25" fill="none" xmlns="http://www.w3.org/2000/svg">
<g clip-path="url(#clip0_6_44)">
<path d="M2.95184 9.74508C2.53674 9.34459 2.55638 8.71318 2.99572 8.33478L7.49572 4.45899C7.93506 4.0806 8.62773 4.09851 9.04283 4.49899L13.2946 8.60106C13.7097 9.00154 13.6901 9.63296 13.2507 10.0114C12.8114 10.3898 12.1187 10.3718 11.7036 9.97135L9.2664 7.61996L8.90691 19.1737C8.88978 19.7244 8.3861 20.1582 7.78191 20.1426C7.17773 20.127 6.70183 19.6678 6.71897 19.1171L7.07846 7.56339L4.49895 9.78508C4.05961 10.1635 3.36695 10.1456 2.95184 9.74508ZM13.7493 14.601C14.1886 14.2226 14.8813 14.2405 15.2964 14.641L17.7336 16.9924L18.0931 5.4387C18.1102 4.88795 18.6139 4.45414 19.2181 4.46976C19.8223 4.48538 20.2982 4.94452 20.281 5.49527L19.9215 17.049L22.501 14.8273C22.9404 14.4489 23.6331 14.4668 24.0482 14.8673C24.4633 15.2678 24.4436 15.8992 24.0043 16.2776L19.5043 20.1534C19.2933 20.3351 19.0118 20.4329 18.7216 20.4254C18.4315 20.4179 18.1565 20.3057 17.9572 20.1134L13.7054 16.0113C13.2903 15.6108 13.3099 14.9794 13.7493 14.601Z" fill="white"/>
</g>
<defs>
<clipPath id="clip0_6_44">
<rect width="23.7332" height="26.0317" fill="white" transform="matrix(0.0313771 -1.00844 1.00859 0.0260769 0 23.9335)"/>
</clipPath>
</defs>
</svg>
