<svg width="27" height="24" viewBox="0 0 27 24" fill="none" xmlns="http://www.w3.org/2000/svg">
<path d="M14.0339 2.29289C14.4623 1.90237 15.1569 1.90237 15.5853 2.29289L18.8763 5.29289C19.3048 5.68342 19.3048 6.31658 18.8763 6.70711L15.5853 9.70711C15.1569 10.0976 14.4623 10.0976 14.0339 9.70711C13.6055 9.31658 13.6055 8.68342 14.0339 8.29289L15.4522 7H13.7126C9.82073 7 6.58205 9.95228 6.58205 13.5C6.58205 17.0477 9.82073 20 13.7126 20C17.6045 20 20.8432 17.0477 20.8432 13.5C20.8432 12.9477 21.3343 12.5 21.9402 12.5C22.546 12.5 23.0372 12.9477 23.0372 13.5C23.0372 18.1523 18.8162 22 13.7126 22C8.60901 22 4.38803 18.1523 4.38803 13.5C4.38803 8.84771 8.60901 5 13.7126 5H15.4522L14.0339 3.70711C13.6055 3.31658 13.6055 2.68342 14.0339 2.29289Z" fill="white"/>
</svg>
