<svg width="27" height="24" viewBox="0 0 27 24" fill="none" xmlns="http://www.w3.org/2000/svg">
<path d="M15.3581 19C14.7523 19 14.2611 19.4477 14.2611 20C14.2611 20.5523 14.7523 21 15.3581 21H20.8432C22.0549 21 23.0372 20.1046 23.0372 19V5C23.0372 3.89543 22.0549 3 20.8432 3H15.3581C14.7523 3 14.2611 3.44771 14.2611 4C14.2611 4.55228 14.7523 5 15.3581 5H20.8432V19H15.3581Z" fill="white"/>
<path d="M17.238 12.7005C17.3396 12.6062 17.4166 12.498 17.4689 12.3828C17.5222 12.2657 17.5517 12.1375 17.5522 12.003L17.5522 12L17.5522 11.997C17.5513 11.7421 17.4442 11.4874 17.2309 11.2929L12.8428 7.29289C12.4144 6.90237 11.7198 6.90237 11.2914 7.29289C10.863 7.68342 10.863 8.31658 11.2914 8.70711L13.8067 11H3.29104C2.68518 11 2.19403 11.4477 2.19403 12C2.19403 12.5523 2.68518 13 3.29104 13H13.8067L11.2914 15.2929C10.863 15.6834 10.863 16.3166 11.2914 16.7071C11.7198 17.0976 12.4144 17.0976 12.8428 16.7071L17.2301 12.7078L17.238 12.7005Z" fill="white"/>
</svg>
